<mxfile host="Electron" modified="2023-12-15T00:37:28.640Z" agent="Mozilla/5.0 (Windows NT 10.0; Win64; x64) AppleWebKit/537.36 (KHTML, like Gecko) draw.io/22.1.2 Chrome/114.0.5735.289 Electron/25.9.4 Safari/537.36" etag="mmRRji5nRrRJlbL7NSeP" version="22.1.2" type="device">
  <diagram id="C5RBs43oDa-KdzZeNtuy" name="Page-1">
    <mxGraphModel dx="2134" dy="1367" grid="1" gridSize="10" guides="1" tooltips="1" connect="1" arrows="1" fold="1" page="1" pageScale="1" pageWidth="827" pageHeight="1169" math="0" shadow="0">
      <root>
        <mxCell id="WIyWlLk6GJQsqaUBKTNV-0" />
        <mxCell id="WIyWlLk6GJQsqaUBKTNV-1" parent="WIyWlLk6GJQsqaUBKTNV-0" />
        <mxCell id="O_jNXN2-ErNVUK5qFj8k-62" value="" style="edgeStyle=orthogonalEdgeStyle;rounded=0;orthogonalLoop=1;jettySize=auto;html=1;" edge="1" parent="WIyWlLk6GJQsqaUBKTNV-1" source="O_jNXN2-ErNVUK5qFj8k-63" target="O_jNXN2-ErNVUK5qFj8k-65">
          <mxGeometry relative="1" as="geometry" />
        </mxCell>
        <mxCell id="O_jNXN2-ErNVUK5qFj8k-63" value="Start" style="strokeWidth=2;html=1;shape=mxgraph.flowchart.start_1;whiteSpace=wrap;" vertex="1" parent="WIyWlLk6GJQsqaUBKTNV-1">
          <mxGeometry x="155" y="129" width="100" height="60" as="geometry" />
        </mxCell>
        <mxCell id="O_jNXN2-ErNVUK5qFj8k-64" value="" style="edgeStyle=orthogonalEdgeStyle;rounded=0;orthogonalLoop=1;jettySize=auto;html=1;" edge="1" parent="WIyWlLk6GJQsqaUBKTNV-1" source="O_jNXN2-ErNVUK5qFj8k-65" target="O_jNXN2-ErNVUK5qFj8k-67">
          <mxGeometry relative="1" as="geometry" />
        </mxCell>
        <mxCell id="O_jNXN2-ErNVUK5qFj8k-65" value="Input :&lt;br&gt;n, m" style="shape=parallelogram;html=1;strokeWidth=2;perimeter=parallelogramPerimeter;whiteSpace=wrap;rounded=1;arcSize=12;size=0.23;" vertex="1" parent="WIyWlLk6GJQsqaUBKTNV-1">
          <mxGeometry x="155" y="219" width="100" height="60" as="geometry" />
        </mxCell>
        <mxCell id="O_jNXN2-ErNVUK5qFj8k-66" value="" style="edgeStyle=orthogonalEdgeStyle;rounded=0;orthogonalLoop=1;jettySize=auto;html=1;" edge="1" parent="WIyWlLk6GJQsqaUBKTNV-1" source="O_jNXN2-ErNVUK5qFj8k-67" target="O_jNXN2-ErNVUK5qFj8k-70">
          <mxGeometry relative="1" as="geometry" />
        </mxCell>
        <mxCell id="O_jNXN2-ErNVUK5qFj8k-131" style="edgeStyle=orthogonalEdgeStyle;rounded=0;orthogonalLoop=1;jettySize=auto;html=1;exitX=1;exitY=0.5;exitDx=0;exitDy=0;entryX=0.5;entryY=0;entryDx=0;entryDy=0;" edge="1" parent="WIyWlLk6GJQsqaUBKTNV-1" source="O_jNXN2-ErNVUK5qFj8k-67" target="O_jNXN2-ErNVUK5qFj8k-129">
          <mxGeometry relative="1" as="geometry">
            <Array as="points">
              <mxPoint x="375" y="344" />
              <mxPoint x="375" y="759" />
              <mxPoint x="205" y="759" />
            </Array>
          </mxGeometry>
        </mxCell>
        <mxCell id="O_jNXN2-ErNVUK5qFj8k-67" value="Init :&lt;br&gt;&amp;nbsp;vector&amp;lt;vector&amp;lt;char&amp;gt;&amp;gt; cave(n, vector&amp;lt;char&amp;gt;(m))" style="rounded=1;whiteSpace=wrap;html=1;absoluteArcSize=1;arcSize=14;strokeWidth=2;" vertex="1" parent="WIyWlLk6GJQsqaUBKTNV-1">
          <mxGeometry x="55" y="309" width="300" height="70" as="geometry" />
        </mxCell>
        <mxCell id="O_jNXN2-ErNVUK5qFj8k-68" value="" style="edgeStyle=orthogonalEdgeStyle;rounded=0;orthogonalLoop=1;jettySize=auto;html=1;" edge="1" parent="WIyWlLk6GJQsqaUBKTNV-1" source="O_jNXN2-ErNVUK5qFj8k-70" target="O_jNXN2-ErNVUK5qFj8k-72">
          <mxGeometry relative="1" as="geometry" />
        </mxCell>
        <mxCell id="O_jNXN2-ErNVUK5qFj8k-70" value="i = 0; i &amp;lt; n; 1" style="verticalLabelPosition=middle;verticalAlign=middle;html=1;shape=hexagon;perimeter=hexagonPerimeter2;arcSize=6;size=0.27;labelPosition=center;align=center;" vertex="1" parent="WIyWlLk6GJQsqaUBKTNV-1">
          <mxGeometry x="100" y="409" width="210" height="80" as="geometry" />
        </mxCell>
        <mxCell id="O_jNXN2-ErNVUK5qFj8k-71" value="" style="edgeStyle=orthogonalEdgeStyle;rounded=0;orthogonalLoop=1;jettySize=auto;html=1;" edge="1" parent="WIyWlLk6GJQsqaUBKTNV-1" source="O_jNXN2-ErNVUK5qFj8k-72" target="O_jNXN2-ErNVUK5qFj8k-74">
          <mxGeometry relative="1" as="geometry" />
        </mxCell>
        <mxCell id="O_jNXN2-ErNVUK5qFj8k-128" style="edgeStyle=orthogonalEdgeStyle;rounded=0;orthogonalLoop=1;jettySize=auto;html=1;exitX=1;exitY=0.5;exitDx=0;exitDy=0;entryX=0;entryY=0.5;entryDx=0;entryDy=0;" edge="1" parent="WIyWlLk6GJQsqaUBKTNV-1" source="O_jNXN2-ErNVUK5qFj8k-72" target="O_jNXN2-ErNVUK5qFj8k-70">
          <mxGeometry relative="1" as="geometry">
            <Array as="points">
              <mxPoint x="310" y="554" />
              <mxPoint x="310" y="729" />
              <mxPoint x="80" y="729" />
              <mxPoint x="80" y="449" />
            </Array>
          </mxGeometry>
        </mxCell>
        <mxCell id="O_jNXN2-ErNVUK5qFj8k-72" value="j = 0; j &amp;lt; m; 1" style="rounded=1;whiteSpace=wrap;html=1;absoluteArcSize=1;arcSize=6;strokeWidth=2;verticalLabelPosition=middle;verticalAlign=middle;shape=hexagon;perimeter=hexagonPerimeter2;size=0.27;labelPosition=center;align=center;" vertex="1" parent="WIyWlLk6GJQsqaUBKTNV-1">
          <mxGeometry x="120" y="519" width="170" height="70" as="geometry" />
        </mxCell>
        <mxCell id="O_jNXN2-ErNVUK5qFj8k-127" style="edgeStyle=orthogonalEdgeStyle;rounded=0;orthogonalLoop=1;jettySize=auto;html=1;entryX=0;entryY=0.5;entryDx=0;entryDy=0;" edge="1" parent="WIyWlLk6GJQsqaUBKTNV-1" source="O_jNXN2-ErNVUK5qFj8k-74" target="O_jNXN2-ErNVUK5qFj8k-72">
          <mxGeometry relative="1" as="geometry">
            <Array as="points">
              <mxPoint x="205" y="699" />
              <mxPoint x="100" y="699" />
              <mxPoint x="100" y="554" />
            </Array>
          </mxGeometry>
        </mxCell>
        <mxCell id="O_jNXN2-ErNVUK5qFj8k-74" value="Input :&lt;br&gt;cave[i][j]" style="shape=parallelogram;html=1;strokeWidth=2;perimeter=parallelogramPerimeter;whiteSpace=wrap;rounded=1;arcSize=12;size=0.23;" vertex="1" parent="WIyWlLk6GJQsqaUBKTNV-1">
          <mxGeometry x="155" y="616" width="100" height="60" as="geometry" />
        </mxCell>
        <mxCell id="O_jNXN2-ErNVUK5qFj8k-85" style="edgeStyle=orthogonalEdgeStyle;rounded=0;orthogonalLoop=1;jettySize=auto;html=1;entryX=0;entryY=0.5;entryDx=0;entryDy=0;" edge="1" parent="WIyWlLk6GJQsqaUBKTNV-1" source="O_jNXN2-ErNVUK5qFj8k-86">
          <mxGeometry relative="1" as="geometry">
            <Array as="points">
              <mxPoint x="205" y="1250" />
              <mxPoint x="50" y="1250" />
              <mxPoint x="50" y="910" />
            </Array>
            <mxPoint x="100" y="910" as="targetPoint" />
          </mxGeometry>
        </mxCell>
        <mxCell id="O_jNXN2-ErNVUK5qFj8k-154" style="edgeStyle=orthogonalEdgeStyle;rounded=0;orthogonalLoop=1;jettySize=auto;html=1;exitX=0.5;exitY=1;exitDx=0;exitDy=0;exitPerimeter=0;entryX=0.5;entryY=0;entryDx=0;entryDy=0;" edge="1" parent="WIyWlLk6GJQsqaUBKTNV-1" source="O_jNXN2-ErNVUK5qFj8k-88" target="O_jNXN2-ErNVUK5qFj8k-148">
          <mxGeometry relative="1" as="geometry" />
        </mxCell>
        <mxCell id="O_jNXN2-ErNVUK5qFj8k-88" value="earthquake(int n, int m, vector&amp;lt;vector&amp;lt;char&amp;gt;&amp;gt;&amp;amp; cave)" style="strokeWidth=2;html=1;shape=mxgraph.flowchart.start_1;whiteSpace=wrap;" vertex="1" parent="WIyWlLk6GJQsqaUBKTNV-1">
          <mxGeometry x="519.98" y="119" width="300.37" height="80" as="geometry" />
        </mxCell>
        <mxCell id="O_jNXN2-ErNVUK5qFj8k-122" value="End" style="strokeWidth=2;html=1;shape=mxgraph.flowchart.terminator;whiteSpace=wrap;" vertex="1" parent="WIyWlLk6GJQsqaUBKTNV-1">
          <mxGeometry x="155" y="1349" width="100" height="60" as="geometry" />
        </mxCell>
        <mxCell id="O_jNXN2-ErNVUK5qFj8k-139" style="edgeStyle=orthogonalEdgeStyle;rounded=0;orthogonalLoop=1;jettySize=auto;html=1;exitX=0.5;exitY=1;exitDx=0;exitDy=0;entryX=0.5;entryY=0;entryDx=0;entryDy=0;" edge="1" parent="WIyWlLk6GJQsqaUBKTNV-1" source="O_jNXN2-ErNVUK5qFj8k-129" target="O_jNXN2-ErNVUK5qFj8k-133">
          <mxGeometry relative="1" as="geometry" />
        </mxCell>
        <mxCell id="O_jNXN2-ErNVUK5qFj8k-129" value="earthquake(n, m, cave);" style="rounded=1;whiteSpace=wrap;html=1;absoluteArcSize=1;arcSize=6;strokeWidth=2;verticalLabelPosition=middle;verticalAlign=middle;shape=process;size=0.14;labelPosition=center;align=center;" vertex="1" parent="WIyWlLk6GJQsqaUBKTNV-1">
          <mxGeometry x="107.5" y="789" width="195" height="65" as="geometry" />
        </mxCell>
        <mxCell id="O_jNXN2-ErNVUK5qFj8k-132" value="" style="edgeStyle=orthogonalEdgeStyle;rounded=0;orthogonalLoop=1;jettySize=auto;html=1;" edge="1" parent="WIyWlLk6GJQsqaUBKTNV-1" source="O_jNXN2-ErNVUK5qFj8k-133" target="O_jNXN2-ErNVUK5qFj8k-136">
          <mxGeometry relative="1" as="geometry" />
        </mxCell>
        <mxCell id="O_jNXN2-ErNVUK5qFj8k-133" value="i = 0; i &amp;lt; n; 1" style="verticalLabelPosition=middle;verticalAlign=middle;html=1;shape=hexagon;perimeter=hexagonPerimeter2;arcSize=6;size=0.27;labelPosition=center;align=center;" vertex="1" parent="WIyWlLk6GJQsqaUBKTNV-1">
          <mxGeometry x="100" y="890" width="210" height="80" as="geometry" />
        </mxCell>
        <mxCell id="O_jNXN2-ErNVUK5qFj8k-134" value="" style="edgeStyle=orthogonalEdgeStyle;rounded=0;orthogonalLoop=1;jettySize=auto;html=1;" edge="1" parent="WIyWlLk6GJQsqaUBKTNV-1" source="O_jNXN2-ErNVUK5qFj8k-136" target="O_jNXN2-ErNVUK5qFj8k-138">
          <mxGeometry relative="1" as="geometry" />
        </mxCell>
        <mxCell id="O_jNXN2-ErNVUK5qFj8k-143" style="edgeStyle=orthogonalEdgeStyle;rounded=0;orthogonalLoop=1;jettySize=auto;html=1;exitX=1;exitY=0.5;exitDx=0;exitDy=0;entryX=0.5;entryY=0;entryDx=0;entryDy=0;" edge="1" parent="WIyWlLk6GJQsqaUBKTNV-1" source="O_jNXN2-ErNVUK5qFj8k-136" target="O_jNXN2-ErNVUK5qFj8k-140">
          <mxGeometry relative="1" as="geometry">
            <Array as="points">
              <mxPoint x="310" y="1035" />
              <mxPoint x="310" y="1199" />
              <mxPoint x="205" y="1199" />
            </Array>
          </mxGeometry>
        </mxCell>
        <mxCell id="O_jNXN2-ErNVUK5qFj8k-136" value="j = 0; j &amp;lt; m; 1" style="rounded=1;whiteSpace=wrap;html=1;absoluteArcSize=1;arcSize=6;strokeWidth=2;verticalLabelPosition=middle;verticalAlign=middle;shape=hexagon;perimeter=hexagonPerimeter2;size=0.27;labelPosition=center;align=center;" vertex="1" parent="WIyWlLk6GJQsqaUBKTNV-1">
          <mxGeometry x="120" y="1000" width="170" height="70" as="geometry" />
        </mxCell>
        <mxCell id="O_jNXN2-ErNVUK5qFj8k-137" style="edgeStyle=orthogonalEdgeStyle;rounded=0;orthogonalLoop=1;jettySize=auto;html=1;entryX=0;entryY=0.5;entryDx=0;entryDy=0;" edge="1" parent="WIyWlLk6GJQsqaUBKTNV-1" source="O_jNXN2-ErNVUK5qFj8k-138" target="O_jNXN2-ErNVUK5qFj8k-136">
          <mxGeometry relative="1" as="geometry">
            <Array as="points">
              <mxPoint x="205" y="1180" />
              <mxPoint x="100" y="1180" />
              <mxPoint x="100" y="1035" />
            </Array>
          </mxGeometry>
        </mxCell>
        <mxCell id="O_jNXN2-ErNVUK5qFj8k-138" value="Output:&lt;br&gt;cave[i][j]" style="shape=parallelogram;html=1;strokeWidth=2;perimeter=parallelogramPerimeter;whiteSpace=wrap;rounded=1;arcSize=12;size=0.23;" vertex="1" parent="WIyWlLk6GJQsqaUBKTNV-1">
          <mxGeometry x="155" y="1097" width="100" height="60" as="geometry" />
        </mxCell>
        <mxCell id="O_jNXN2-ErNVUK5qFj8k-144" style="edgeStyle=orthogonalEdgeStyle;rounded=0;orthogonalLoop=1;jettySize=auto;html=1;exitX=0.5;exitY=1;exitDx=0;exitDy=0;entryX=0;entryY=0.5;entryDx=0;entryDy=0;" edge="1" parent="WIyWlLk6GJQsqaUBKTNV-1" source="O_jNXN2-ErNVUK5qFj8k-140" target="O_jNXN2-ErNVUK5qFj8k-133">
          <mxGeometry relative="1" as="geometry">
            <Array as="points">
              <mxPoint x="205" y="1303" />
              <mxPoint x="60" y="1303" />
              <mxPoint x="60" y="930" />
            </Array>
          </mxGeometry>
        </mxCell>
        <mxCell id="O_jNXN2-ErNVUK5qFj8k-140" value="Output:&lt;br&gt;cave[i][j]" style="shape=parallelogram;html=1;strokeWidth=2;perimeter=parallelogramPerimeter;whiteSpace=wrap;rounded=1;arcSize=12;size=0.23;" vertex="1" parent="WIyWlLk6GJQsqaUBKTNV-1">
          <mxGeometry x="155" y="1223" width="100" height="60" as="geometry" />
        </mxCell>
        <mxCell id="O_jNXN2-ErNVUK5qFj8k-145" style="edgeStyle=orthogonalEdgeStyle;rounded=0;orthogonalLoop=1;jettySize=auto;html=1;exitX=1;exitY=0.5;exitDx=0;exitDy=0;entryX=0.5;entryY=0;entryDx=0;entryDy=0;entryPerimeter=0;" edge="1" parent="WIyWlLk6GJQsqaUBKTNV-1" source="O_jNXN2-ErNVUK5qFj8k-133" target="O_jNXN2-ErNVUK5qFj8k-122">
          <mxGeometry relative="1" as="geometry">
            <Array as="points">
              <mxPoint x="330" y="930" />
              <mxPoint x="330" y="1329" />
              <mxPoint x="205" y="1329" />
            </Array>
          </mxGeometry>
        </mxCell>
        <mxCell id="O_jNXN2-ErNVUK5qFj8k-147" value="" style="edgeStyle=orthogonalEdgeStyle;rounded=0;orthogonalLoop=1;jettySize=auto;html=1;" edge="1" parent="WIyWlLk6GJQsqaUBKTNV-1" source="O_jNXN2-ErNVUK5qFj8k-148" target="O_jNXN2-ErNVUK5qFj8k-151">
          <mxGeometry relative="1" as="geometry" />
        </mxCell>
        <mxCell id="O_jNXN2-ErNVUK5qFj8k-148" value="j = 0; j &amp;lt; m; 1" style="verticalLabelPosition=middle;verticalAlign=middle;html=1;shape=hexagon;perimeter=hexagonPerimeter2;arcSize=6;size=0.27;labelPosition=center;align=center;" vertex="1" parent="WIyWlLk6GJQsqaUBKTNV-1">
          <mxGeometry x="565.1600000000001" y="239" width="210" height="80" as="geometry" />
        </mxCell>
        <mxCell id="O_jNXN2-ErNVUK5qFj8k-149" value="" style="edgeStyle=orthogonalEdgeStyle;rounded=0;orthogonalLoop=1;jettySize=auto;html=1;" edge="1" parent="WIyWlLk6GJQsqaUBKTNV-1" source="O_jNXN2-ErNVUK5qFj8k-151" target="O_jNXN2-ErNVUK5qFj8k-153">
          <mxGeometry relative="1" as="geometry" />
        </mxCell>
        <mxCell id="O_jNXN2-ErNVUK5qFj8k-159" style="edgeStyle=orthogonalEdgeStyle;rounded=0;orthogonalLoop=1;jettySize=auto;html=1;exitX=1;exitY=0.5;exitDx=0;exitDy=0;entryX=0;entryY=0.5;entryDx=0;entryDy=0;" edge="1" parent="WIyWlLk6GJQsqaUBKTNV-1" source="O_jNXN2-ErNVUK5qFj8k-151" target="O_jNXN2-ErNVUK5qFj8k-148">
          <mxGeometry relative="1" as="geometry">
            <Array as="points">
              <mxPoint x="1000" y="384" />
              <mxPoint x="1000" y="819" />
              <mxPoint x="460" y="819" />
              <mxPoint x="460" y="279" />
            </Array>
          </mxGeometry>
        </mxCell>
        <mxCell id="O_jNXN2-ErNVUK5qFj8k-151" value="i = n - 1; i &amp;gt;= 0; -1" style="rounded=1;whiteSpace=wrap;html=1;absoluteArcSize=1;arcSize=6;strokeWidth=2;verticalLabelPosition=middle;verticalAlign=middle;shape=hexagon;perimeter=hexagonPerimeter2;size=0.27;labelPosition=center;align=center;" vertex="1" parent="WIyWlLk6GJQsqaUBKTNV-1">
          <mxGeometry x="585.1600000000001" y="349" width="170" height="70" as="geometry" />
        </mxCell>
        <mxCell id="O_jNXN2-ErNVUK5qFj8k-156" value="True" style="edgeStyle=orthogonalEdgeStyle;rounded=0;orthogonalLoop=1;jettySize=auto;html=1;exitX=1;exitY=0.5;exitDx=0;exitDy=0;exitPerimeter=0;entryX=0.5;entryY=0;entryDx=0;entryDy=0;" edge="1" parent="WIyWlLk6GJQsqaUBKTNV-1" source="O_jNXN2-ErNVUK5qFj8k-153" target="O_jNXN2-ErNVUK5qFj8k-155">
          <mxGeometry relative="1" as="geometry" />
        </mxCell>
        <mxCell id="O_jNXN2-ErNVUK5qFj8k-157" style="edgeStyle=orthogonalEdgeStyle;rounded=0;orthogonalLoop=1;jettySize=auto;html=1;exitX=0.5;exitY=1;exitDx=0;exitDy=0;exitPerimeter=0;entryX=0;entryY=0.5;entryDx=0;entryDy=0;" edge="1" parent="WIyWlLk6GJQsqaUBKTNV-1" source="O_jNXN2-ErNVUK5qFj8k-153" target="O_jNXN2-ErNVUK5qFj8k-151">
          <mxGeometry relative="1" as="geometry">
            <Array as="points">
              <mxPoint x="670" y="739" />
              <mxPoint x="490" y="739" />
              <mxPoint x="490" y="384" />
            </Array>
          </mxGeometry>
        </mxCell>
        <mxCell id="O_jNXN2-ErNVUK5qFj8k-153" value="cave[i][j] == &#39;S&#39; &amp;amp;&amp;amp; i + 1 &amp;lt; n &amp;amp;&amp;amp; cave[i + 1][j] == &#39;O&#39;" style="shape=mxgraph.flowchart.decision;html=1;strokeWidth=2;whiteSpace=wrap;rounded=1;arcSize=12;size=0.23;" vertex="1" parent="WIyWlLk6GJQsqaUBKTNV-1">
          <mxGeometry x="505.15000000000003" y="446" width="330.02" height="153" as="geometry" />
        </mxCell>
        <mxCell id="O_jNXN2-ErNVUK5qFj8k-158" style="edgeStyle=orthogonalEdgeStyle;rounded=0;orthogonalLoop=1;jettySize=auto;html=1;exitX=0.5;exitY=1;exitDx=0;exitDy=0;entryX=0;entryY=0.5;entryDx=0;entryDy=0;" edge="1" parent="WIyWlLk6GJQsqaUBKTNV-1" source="O_jNXN2-ErNVUK5qFj8k-155" target="O_jNXN2-ErNVUK5qFj8k-151">
          <mxGeometry relative="1" as="geometry">
            <Array as="points">
              <mxPoint x="890" y="669" />
              <mxPoint x="890" y="739" />
              <mxPoint x="490" y="739" />
              <mxPoint x="490" y="384" />
            </Array>
          </mxGeometry>
        </mxCell>
        <mxCell id="O_jNXN2-ErNVUK5qFj8k-155" value="&lt;div&gt;swap(cave[i + 1][j], cave[i][j]);&lt;/div&gt;&lt;div&gt;i = n - 1;&amp;nbsp;&amp;nbsp;&lt;/div&gt;" style="rounded=1;whiteSpace=wrap;html=1;absoluteArcSize=1;arcSize=14;strokeWidth=2;" vertex="1" parent="WIyWlLk6GJQsqaUBKTNV-1">
          <mxGeometry x="790" y="569" width="190" height="100" as="geometry" />
        </mxCell>
        <mxCell id="O_jNXN2-ErNVUK5qFj8k-160" value="End" style="strokeWidth=2;html=1;shape=mxgraph.flowchart.terminator;whiteSpace=wrap;" vertex="1" parent="WIyWlLk6GJQsqaUBKTNV-1">
          <mxGeometry x="620" y="879" width="100" height="60" as="geometry" />
        </mxCell>
        <mxCell id="O_jNXN2-ErNVUK5qFj8k-161" style="edgeStyle=orthogonalEdgeStyle;rounded=0;orthogonalLoop=1;jettySize=auto;html=1;exitX=1;exitY=0.5;exitDx=0;exitDy=0;entryX=0.5;entryY=0;entryDx=0;entryDy=0;entryPerimeter=0;" edge="1" parent="WIyWlLk6GJQsqaUBKTNV-1" source="O_jNXN2-ErNVUK5qFj8k-148" target="O_jNXN2-ErNVUK5qFj8k-160">
          <mxGeometry relative="1" as="geometry">
            <Array as="points">
              <mxPoint x="1040" y="279" />
              <mxPoint x="1040" y="859" />
              <mxPoint x="670" y="859" />
            </Array>
          </mxGeometry>
        </mxCell>
      </root>
    </mxGraphModel>
  </diagram>
</mxfile>
